<svg xmlns="http://www.w3.org/2000/svg" xmlns:xlink="http://www.w3.org/1999/xlink" width="500" zoomAndPan="magnify" viewBox="0 0 375 374.999991" height="500" preserveAspectRatio="xMidYMid meet" version="1.0"><defs><clipPath id="c8877b7067"><path d="M 23.085938 0 L 351.585938 0 L 351.585938 375 L 23.085938 375 Z M 23.085938 0 " clip-rule="nonzero"/></clipPath></defs><g clip-path="url(#c8877b7067)"><path fill="#db783b" d="M 23.417969 49.0625 C 20.867188 117.277344 33.0625 178.421875 60 232.507812 C 61.6875 236.039062 63.429688 239.542969 65.230469 243.007812 C 78.582031 268.757812 94.828125 292.398438 113.441406 313.359375 C 132.054688 334.320312 153.050781 352.605469 175.917969 367.640625 L 186.546875 374.636719 C 187.097656 375.015625 187.84375 375.046875 188.4375 374.652344 L 199.09375 367.640625 C 221.960938 352.609375 242.957031 334.320312 261.570312 313.359375 C 280.179688 292.398438 296.421875 268.757812 309.78125 243.007812 C 323.453125 216.648438 333.902344 188.375 340.9375 159.003906 C 347.96875 129.628906 351.585938 99.183594 351.585938 68.488281 L 351.585938 49.058594 C 351.585938 48.113281 350.824219 47.351562 349.878906 47.351562 L 330.472656 47.351562 C 307.386719 47.351562 284.496094 43.894531 262.410156 37.171875 C 240.304688 30.441406 218.996094 20.441406 199.089844 7.355469 L 188.460938 0.363281 C 187.90625 -0.015625 187.164062 -0.046875 186.566406 0.347656 L 175.914062 7.355469 C 156.011719 20.441406 134.695312 30.441406 112.59375 37.171875 C 90.503906 43.894531 67.613281 47.351562 44.527344 47.351562 L 25.121094 47.351562 C 24.175781 47.351562 23.414062 48.113281 23.414062 49.058594 Z M 152.808594 240.449219 C 152.535156 235.699219 160.15625 193.109375 161.9375 182.8125 C 162.253906 180.992188 163.507812 174.777344 163.375 173.460938 C 163.105469 170.757812 146.628906 154.308594 160.066406 131.117188 C 160.925781 129.640625 160.800781 129.800781 161.1875 129.5 C 167.382812 120.628906 177.605469 114.792969 189.207031 114.652344 L 189.207031 97.488281 L 189.199219 97.488281 C 189.199219 97.15625 189.105469 96.824219 188.902344 96.527344 C 188.375 95.75 187.3125 95.550781 186.539062 96.078125 C 186.480469 96.117188 169.066406 108.808594 88.742188 87.992188 C 106.257812 85.984375 121.269531 82.121094 135.820312 76.476562 C 152.636719 69.953125 168.800781 61.070312 187.496094 49.917969 C 206.332031 61.085938 226.140625 69.984375 246.582031 76.503906 C 266.824219 82.957031 287.664062 87.078125 308.757812 88.757812 C 305.953125 136.566406 293.28125 182.40625 272.496094 222.800781 C 252.03125 262.578125 223.707031 297.074219 189.199219 322.972656 L 189.199219 240.488281 L 152.804688 240.445312 Z M 152.808594 240.449219 " fill-opacity="1" fill-rule="evenodd"/></g><path fill="#000000" d="M 189.210938 114.648438 L 189.210938 240.492188 L 225.601562 240.535156 C 225.996094 233.734375 218.019531 194.523438 216.328125 182.132812 C 216.046875 180.074219 214.722656 174.480469 215.066406 172.960938 C 220.808594 166.769531 224.316406 158.472656 224.316406 149.355469 C 224.316406 130.179688 208.792969 114.640625 189.636719 114.640625 C 189.496094 114.640625 189.351562 114.640625 189.210938 114.644531 Z M 189.210938 114.648438 " fill-opacity="1" fill-rule="evenodd"/></svg>